HIERARCHY
ROOT Hips
{
	OFFSET -3.958830 18.904000 13.208200
	CHANNELS 6 Xposition Yposition Zposition Zrotation Yrotation Xrotation 
	JOINT LHipJoint
	{
		OFFSET 0.000000 0.000000 0.000000
		CHANNELS 3 Zrotation Yrotation Xrotation
		JOINT LeftUpLeg
		{
			OFFSET 1.800000 -1.400000 0.085000
			CHANNELS 3 Zrotation Yrotation Xrotation
			JOINT LeftLeg
			{
				OFFSET 2.215000 -6.000000 0.000000
				CHANNELS 3 Zrotation Yrotation Xrotation
				JOINT LeftFoot
				{
					OFFSET 2.500000 -6.900000 0.000000
					CHANNELS 3 Zrotation Yrotation Xrotation
					JOINT LeftToeBase
					{
						OFFSET 0.200000 -0.500000 1.950000
						CHANNELS 3 Zrotation Yrotation Xrotation
						End Site
						{
							OFFSET 0.000000 0.000000 0.000000
						}
					}
				}
			}
		}
	}
	JOINT RHipJoint
	{
		OFFSET 0.000000 0.000000 0.000000
		CHANNELS 3 Zrotation Yrotation Xrotation
		JOINT RightUpLeg
		{
			OFFSET -1.800000 -1.400000 0.085000
			CHANNELS 3 Zrotation Yrotation Xrotation
			JOINT RightLeg
			{
				OFFSET -2.215000 -6.000000 0.000000
				CHANNELS 3 Zrotation Yrotation Xrotation
				JOINT RightFoot
				{
					OFFSET -2.500000 -6.900000 0.000000
					CHANNELS 3 Zrotation Yrotation Xrotation
					JOINT RightToeBase
					{
						OFFSET -0.200000 -0.500000 1.950000
						CHANNELS 3 Zrotation Yrotation Xrotation
						End Site
						{
							OFFSET 0.000000 0.000000 0.000000
						}
					}
				}
			}
		}
	}
	JOINT LowerBack
	{
		OFFSET 0.000000 0.000000 0.000000
		CHANNELS 3 Zrotation Yrotation Xrotation
		JOINT Spine
		{
			OFFSET -0.087000 1.940000 -0.288900
			CHANNELS 3 Zrotation Yrotation Xrotation
			JOINT Spine1
			{
				OFFSET 0.000000 1.950000 0.060000
				CHANNELS 3 Zrotation Yrotation Xrotation
				JOINT Neck
				{
					OFFSET 0.000000 0.000000 0.000000
					CHANNELS 3 Zrotation Yrotation Xrotation
					JOINT Neck1
					{
						OFFSET 0.000000 1.600000 0.340000
						CHANNELS 3 Zrotation Yrotation Xrotation
						JOINT Head
						{
							OFFSET 0.000000 1.667000 -0.240000
							CHANNELS 3 Zrotation Yrotation Xrotation
							End Site
							{
								OFFSET 0.000000 0.000000 0.000000
							}
						}
					}
				}
				JOINT LeftShoulder
				{
					OFFSET 0.000000 0.000000 0.000000
					CHANNELS 3 Zrotation Yrotation Xrotation
					JOINT LeftArm
					{
						OFFSET 2.700000 1.550000 -0.730000
						CHANNELS 3 Zrotation Yrotation Xrotation
						JOINT LeftForeArm
						{
							OFFSET 5.450000 0.000000 0.000000
							CHANNELS 3 Zrotation Yrotation Xrotation
							JOINT LeftHand
							{
								OFFSET 3.450000 0.000000 0.000000
								CHANNELS 3 Zrotation Yrotation Xrotation
								JOINT LeftHandIndex1
								{
									OFFSET 0.750000 0.000000 0.000000
									CHANNELS 3 Zrotation Yrotation Xrotation
									End Site
									{
										OFFSET 0.000000 0.000000 0.000000
									}
								}
							}
						}
					}
				}
				JOINT RightShoulder
				{
					OFFSET 0.000000 0.000000 0.000000
					CHANNELS 3 Zrotation Yrotation Xrotation
					JOINT RightArm
					{
						OFFSET -2.700000 1.550000 -0.730000
						CHANNELS 3 Zrotation Yrotation Xrotation
						JOINT RightForeArm
						{
							OFFSET -5.450000 0.000000 0.000000
							CHANNELS 3 Zrotation Yrotation Xrotation
							JOINT RightHand
							{
								OFFSET -3.450000 0.000000 0.000000
								CHANNELS 3 Zrotation Yrotation Xrotation
								JOINT RightHandIndex1
								{
									OFFSET -0.750000 0.000000 0.000000
									CHANNELS 3 Zrotation Yrotation Xrotation
									End Site
									{
										OFFSET 0.000000 0.000000 0.000000
									}
								}
							}
						}
					}
				}
			}
		}
	}
}
MOTION
Frames: 4
Frame Time: 0.016667
-0.624120 17.810670 -3.734220 -2.223209 3.430369 -6.882142 -14.496459 11.606936 3.417588 11.135231 -2.806609 -30.281056 -8.837198 5.612293 14.630541 -0.927210 4.021258 3.184419 0.869850 0.594040 0.412830 19.053651 -11.798105 2.571780 3.561072 2.455194 -12.166967 -3.454013 -4.886960 36.868753 -0.751620 -5.702043 2.449533 0.520880 0.462640 0.309260 -5.706586 1.798985 -7.512680 26.567096 -2.708946 17.791754 -15.251785 2.340337 19.144983 1.056512 -4.409687 -7.568926 -10.585152 -3.300105 34.818169 3.499330 -9.472230 -15.264950 3.160014 -35.782854 -0.928694 2.522223 -51.763486 -3.761948 42.699505 -36.247401 -15.658255 -3.859704 2.931131 0.378060 0.202450 -0.101610 0.453000 -6.269377 35.843826 3.865388 -1.059464 33.941738 -8.793071 -54.679659 40.683791 -22.315107 1.722147 -1.629734 -0.142540 0.448980 -0.117410 -0.044200 
-0.617750 17.831920 -3.708870 -1.850376 4.386759 -6.809562 -14.529554 11.678023 3.443585 10.320421 -3.197985 -30.848889 -8.521070 5.984218 17.177840 -0.887649 4.200354 3.121231 0.844490 0.559970 0.392480 19.019443 -11.722794 2.586345 3.168714 2.901574 -13.540414 -3.040798 -5.334729 39.246698 -0.784950 -5.973037 2.356748 0.497320 0.471750 0.297400 -5.628913 1.582006 -7.527411 25.981721 -2.689657 17.869945 -14.995091 2.245305 18.876981 0.952633 -4.336809 -7.711251 -10.701451 -3.442530 35.071740 4.307170 -9.954100 -14.962100 2.809140 -34.490949 -0.789075 -3.109425 -51.758269 -0.947513 47.268427 -39.586869 -19.008836 -3.814621 2.833930 0.375820 0.195960 -0.115510 0.449120 -5.765361 34.543300 4.695726 2.439555 33.227411 -8.291323 -60.960895 45.027981 -27.648534 1.600821 -1.468054 -0.148550 0.447700 -0.108330 -0.039960 
-0.594280 17.889990 -3.655390 -0.858839 5.883352 -6.696037 -14.591785 11.809205 3.517224 8.549276 -3.962235 -31.151850 -8.458506 6.693011 21.187596 -0.765913 4.570060 3.002813 0.769980 0.475880 0.349000 18.946133 -11.560342 2.645327 2.278270 3.807226 -16.419139 -2.800233 -6.040401 43.801308 -0.870350 -6.514117 2.189956 0.419570 0.473340 0.271980 -5.466147 1.143715 -7.627864 24.483031 -2.534544 18.479525 -14.612303 2.243039 18.223295 1.061074 -3.991664 -8.462148 -10.665555 -3.636877 36.150439 5.029830 -10.347280 -14.207410 1.055706 -32.599203 -0.221046 -12.571656 -51.343289 3.806659 54.133409 -46.658865 -25.432643 -3.690807 2.576516 0.385790 0.179790 -0.120220 0.439640 -4.275920 32.560693 6.582045 9.340640 31.504548 -7.319192 -74.799017 51.804363 -40.681373 1.407362 -1.011860 -0.157130 0.437180 -0.097580 -0.035120 
-0.576360 17.962940 -3.614960 -0.643019 7.620558 -7.161055 -14.643626 11.854836 3.500403 7.515796 -4.362526 -30.805073 -8.340966 7.539728 25.304854 -0.625434 5.097891 2.814402 0.741900 0.434760 0.335910 18.908023 -11.320734 2.840074 2.311472 5.210079 -19.609544 -2.873969 -6.761610 49.560714 -1.063885 -7.297020 1.950088 0.357160 0.444650 0.267570 -5.369172 0.840078 -7.778359 24.015401 -3.086859 19.873122 -14.649103 1.961789 18.213150 1.505384 -3.977078 -9.400625 -11.130018 -3.704184 37.275736 5.701850 -10.649170 -14.768940 -0.985766 -30.332559 0.958943 -21.105986 -49.969805 6.919224 63.732985 -54.772477 -35.534705 -3.495593 2.173013 0.427570 0.142830 -0.089710 0.440960 -2.985012 30.310583 8.057638 15.706240 29.663901 -6.335872 -87.616816 56.070360 -55.344893 1.316676 -0.487603 -0.145450 0.419100 -0.104540 -0.036710 
